<svg viewBox="0 0 200 200" xmlns="http://www.w3.org/2000/svg">
  <path fill="#13b981" d="M33.7,-48.3C44.2,-52.4,53.6,-44.4,60.3,-34.3C67.1,-24.2,71.3,-12.1,72.4,0.7C73.6,13.5,71.8,27,59.7,27.8C47.7,28.6,25.3,16.8,13.6,22.3C1.9,27.8,1,50.7,-5.3,59.8C-11.5,68.9,-23,64.3,-32.2,57.4C-41.3,50.4,-48.1,41.1,-47.3,31.1C-46.4,21.1,-37.9,10.6,-36.1,1C-34.3,-8.5,-39.2,-17,-35,-18.3C-30.9,-19.6,-17.7,-13.8,-10.4,-11.4C-3,-9.1,-1.5,-10.3,5.1,-19.1C11.6,-27.8,23.3,-44.1,33.7,-48.3Z" transform="translate(100 100)" />
</svg>
