<svg id="Capa_1"  viewBox="0 0 512 512" xmlns="http://www.w3.org/2000/svg"><g><path d="m244 268-57.78 141.85-181.83 97.76c-4.12-4.13-5.48-10.28-3.48-15.76l51.1-139.83s48.11-20.89 31.57-86.38l20.89-57.17s53.42-26.58 139.53 59.53z" fill="#ff6174"></path><path d="m303.53 407.53-117.31 42.87s-21.48-15.36-42.92-3.78c-21.45 11.57-28.97 30.05-28.97 30.05l-94.18 34.42c-1.68.61-3.42.91-5.15.91-3.91 0-7.74-1.53-10.61-4.39l239.61-239.61c86.11 86.11 59.53 139.53 59.53 139.53z" fill="#d9396f"></path><path d="m141.71 370.29-4.6 57.94-49.11-4.23-35.99-71.98 31.57-86.38z" fill="#ff8398"></path><path d="m186.22 450.4-71.89 26.27-26.33-52.67 53.71-53.71z" fill="#ff6174"></path><path d="m281.85 304.32-77.85 3.68-99.53-99.53 25.44-69.62c1.63-4.46 5.27-7.88 9.82-9.23s9.47-.47 13.27 2.38c43.04 32.28 83.65 67.51 121.57 105.43z" fill="#ff8398"></path><path d="m382.38 372.27c-1.35 4.55-4.77 8.19-9.23 9.82l-69.62 25.44-99.53-99.53 70.57-70.57c37.92 37.92 73.15 78.53 105.43 121.57 2.85 3.8 3.73 8.72 2.38 13.27z" fill="#ff6174"></path><path d="m432.02 367c-8.284 0-15.005-6.716-15.005-15s6.71-15 14.995-15h.01c8.284 0 15 6.716 15 15s-6.716 15-15 15z" fill="#82ebff"></path><path d="m160.02 95c-8.284 0-15.005-6.716-15.005-15s6.71-15 14.995-15h.01c8.284 0 15 6.716 15 15s-6.716 15-15 15z" fill="#82ebff"></path><g fill="#e1b0ff"><path d="m512 224v88c0 5.18-2.67 10-7.07 12.73-2.42 1.51-5.17 2.27-7.93 2.27-2.26 0-4.53-.51-6.62-1.54l-1.69-.83c-39.37-19.38-83.38-29.63-127.26-29.63h-1.43c-6.55 0-12.34-4.25-14.31-10.49-1.96-6.24.34-13.04 5.71-16.8l33.3-23.31c33.08-23.16 71.92-35.4 112.3-35.4 8.28 0 15 6.72 15 15z"></path><path d="m434.61 141.39-64-64c-3.46-3.46-8.39-5.01-13.21-4.16s-8.92 3.99-10.99 8.43l-56 120c-2.67 5.71-1.48 12.49 2.98 16.95 2.88 2.87 6.72 4.39 10.61 4.39 2.15 0 4.31-.46 6.34-1.41l120-56c4.44-2.07 7.58-6.17 8.43-10.99s-.7-9.75-4.16-13.21z"></path><path d="m303 15c0 40.38-12.24 79.22-35.4 112.3l-23.31 33.3c-2.86 4.09-7.49 6.4-12.29 6.4-1.5 0-3.02-.23-4.51-.69-6.24-1.97-10.49-7.76-10.49-14.31 0-44.82-10.46-89.76-30.26-129.97l-.2-.41c-2.29-4.65-2.01-10.15.73-14.55 2.73-4.4 7.55-7.07 12.73-7.07h88c8.28 0 15 6.72 15 15z"></path></g><path d="m480.02 167c-8.284 0-15.005-6.716-15.005-15s6.71-15 14.995-15h.01c8.284 0 15 6.716 15 15s-6.716 15-15 15z" fill="#cbe557"></path><path d="m360.02 47c-8.284 0-15.005-6.716-15.005-15s6.71-15 14.995-15h.01c8.284 0 15 6.716 15 15s-6.716 15-15 15z" fill="#cbe557"></path><path d="m507.6 4.4c-2.71-2.72-6.46-4.4-10.6-4.4h-66c-8.28 0-15 6.72-15 15v66c0 4.14 1.68 7.89 4.4 10.6 2.71 2.72 6.46 4.4 10.6 4.4h66c8.28 0 15-6.72 15-15v-66c0-4.14-1.68-7.89-4.4-10.6z" fill="#ffe994"></path></g></svg>