<svg id="visual" viewBox="0 0 675 900" width="675" height="900" xmlns="http://www.w3.org/2000/svg" xmlns:xlink="http://www.w3.org/1999/xlink" version="1.1"><path d="M0 454L10.2 454.3C20.3 454.7 40.7 455.3 61.2 468.8C81.7 482.3 102.3 508.7 122.8 520.8C143.3 533 163.7 531 184 518.3C204.3 505.7 224.7 482.3 245.2 454.7C265.7 427 286.3 395 306.8 399C327.3 403 347.7 443 368.2 458.8C388.7 474.7 409.3 466.3 429.8 452.2C450.3 438 470.7 418 491 421C511.3 424 531.7 450 552.2 445.3C572.7 440.7 593.3 405.3 613.8 399C634.3 392.7 654.7 415.3 664.8 426.7L675 438L675 901L664.8 901C654.7 901 634.3 901 613.8 901C593.3 901 572.7 901 552.2 901C531.7 901 511.3 901 491 901C470.7 901 450.3 901 429.8 901C409.3 901 388.7 901 368.2 901C347.7 901 327.3 901 306.8 901C286.3 901 265.7 901 245.2 901C224.7 901 204.3 901 184 901C163.7 901 143.3 901 122.8 901C102.3 901 81.7 901 61.2 901C40.7 901 20.3 901 10.2 901L0 901Z" fill="#1f2937" stroke-linecap="round" stroke-linejoin="miter"></path></svg>