<svg id="visual" viewBox="0 0 675 900" width="675" height="900" xmlns="http://www.w3.org/2000/svg" xmlns:xlink="http://www.w3.org/1999/xlink" version="1.1"><path d="M0 504L10.2 500.7C20.3 497.3 40.7 490.7 61.2 479C81.7 467.3 102.3 450.7 122.8 452C143.3 453.3 163.7 472.7 184 466.5C204.3 460.3 224.7 428.7 245.2 409.3C265.7 390 286.3 383 306.8 396.3C327.3 409.7 347.7 443.3 368.2 443.2C388.7 443 409.3 409 429.8 418C450.3 427 470.7 479 491 499.5C511.3 520 531.7 509 552.2 482.5C572.7 456 593.3 414 613.8 400.8C634.3 387.7 654.7 403.3 664.8 411.2L675 419L675 901L664.8 901C654.7 901 634.3 901 613.8 901C593.3 901 572.7 901 552.2 901C531.7 901 511.3 901 491 901C470.7 901 450.3 901 429.8 901C409.3 901 388.7 901 368.2 901C347.7 901 327.3 901 306.8 901C286.3 901 265.7 901 245.2 901C224.7 901 204.3 901 184 901C163.7 901 143.3 901 122.8 901C102.3 901 81.7 901 61.2 901C40.7 901 20.3 901 10.2 901L0 901Z" fill="#7380ff" stroke-linecap="round" stroke-linejoin="miter"></path></svg>