<svg id="visual" viewBox="0 0 675 900" width="675" height="900" xmlns="http://www.w3.org/2000/svg" xmlns:xlink="http://www.w3.org/1999/xlink" version="1.1"><path fill-opacity="0.75" d="M0 362L10.2 374.7C20.3 387.3 40.7 412.7 61.2 436.5C81.7 460.3 102.3 482.7 122.8 474.2C143.3 465.7 163.7 426.3 184 427.5C204.3 428.7 224.7 470.3 245.2 488.3C265.7 506.3 286.3 500.7 306.8 492.3C327.3 484 347.7 473 368.2 455.8C388.7 438.7 409.3 415.3 429.8 402.8C450.3 390.3 470.7 388.7 491 409.7C511.3 430.7 531.7 474.3 552.2 487.3C572.7 500.3 593.3 482.7 613.8 486.2C634.3 489.7 654.7 514.3 664.8 526.7L675 539L675 901L664.8 901C654.7 901 634.3 901 613.8 901C593.3 901 572.7 901 552.2 901C531.7 901 511.3 901 491 901C470.7 901 450.3 901 429.8 901C409.3 901 388.7 901 368.2 901C347.7 901 327.3 901 306.8 901C286.3 901 265.7 901 245.2 901C224.7 901 204.3 901 184 901C163.7 901 143.3 901 122.8 901C102.3 901 81.7 901 61.2 901C40.7 901 20.3 901 10.2 901L0 901Z" fill="#1f2937" stroke-linecap="round" stroke-linejoin="miter"></path></svg>